<svg xmlns="http://www.w3.org/2000/svg" width="159.561" height="30" viewBox="0 0 159.561 30">
  <g id="그룹_493" data-name="그룹 493" transform="translate(-451 -58)">
    <text id="전기차_재사용_배터리_시험평가_인증_시스템" data-name="전기차 재사용 배터리
시험평가 인증 시스템" transform="translate(518.561 70)" fill="#fff" font-size="11" font-family="S-CoreDream-8Heavy, 'S-Core Dream \38 '" font-weight="800" letter-spacing="-0.088em"><tspan x="0" y="0">전기차 재사용 배터리</tspan><tspan x="0" y="13">시험평가 인증 시스템</tspan></text>
    <g id="그룹_328" data-name="그룹 328" transform="translate(451 58)">
      <g id="그룹_71" data-name="그룹 71" transform="translate(0)">
        <g id="그룹_70" data-name="그룹 70">
          <path id="패스_185" data-name="패스 185" d="M369.536,323.511H367.8V325.2h1.734Zm.912-.9V324.3h1.731v-1.684Zm-3.6,1.746h-1.734v1.681h1.734Zm-2.173.425h-1.734v1.683h1.734Zm-2.1,3.8h1.73V326.9h-1.634v-1.684h-1.73V326.9h1.634Zm3.728,1.485h1.733v-1.683H366.3Zm2.5-.434h1.734v-1.684H368.8Zm-2.734,2.484H367.8v-1.683h-1.736Zm2-.166H369.8v-1.683h-1.733Zm1.134-6.019h-1.733v1.683H369.2Zm-4.531,2.316H366.4v-1.681h-1.731Zm-.47,2.153h1.731v-1.686H364.2Zm5.744-3.163h1.733v-1.684h-1.733Zm-5.842,1.643H362.37V327.2h-1.737v-1.683h-8.66v6.733h5.221v20.363h6.91V332.25h1.734v-1.684H364.1Z" transform="translate(-333.824 -322.613)" fill="#fff"/>
          <path id="패스_186" data-name="패스 186" d="M339.969,344.761h4.457c2.855,0,3.632-.692,3.632-3.019v-17.18h7.1V340.6c0,10.449-3.958,11.017-15.19,11.017Z" transform="translate(-339.969 -321.616)" fill="#fff"/>
          <path id="패스_187" data-name="패스 187" d="M375.514,324.544H365.37v27.08h7.1v-7.413h2.96c6.123,0,9.752-4.081,9.752-10.038A9.427,9.427,0,0,0,375.514,324.544Zm-3.044,13.048v-6.438H375.1a2.9,2.9,0,0,1,2.982,3.019C378.084,337.081,376.466,337.56,372.47,337.592Z" transform="translate(-326.965 -321.624)" fill="#fff"/>
        </g>
      </g>
    </g>
  </g>
</svg>
