<svg xmlns="http://www.w3.org/2000/svg" width="58.745" height="47.392" viewBox="0 0 58.745 47.392">
  <g id="그룹_461" data-name="그룹 461" transform="translate(0 0)">
    <path id="패스_1496" data-name="패스 1496" d="M215.361,223.4H180.017s-6.219-.839-6.988,13.792c0,0,.406-5.423,4.355-5.539h36.559s4.391.393,4.761-12.851C218.7,218.8,218.5,222.574,215.361,223.4Z" transform="translate(-159.96 -218.8)" fill="#fff"/>
    <path id="패스_1497" data-name="패스 1497" d="M170.468,278.125h35.751s5.488-1.116,1.114,13.085c0,0,.506-5.423-4.557-4.834H169.862s-6.691.741-1.822-14.146C168.04,272.23,167.939,278.125,170.468,278.125Z" transform="translate(-156.793 -243.818)" fill="#fff"/>
    <path id="패스_1498" data-name="패스 1498" d="M197.415,255.159h19.85l-1.924,8.016H195.694Z" transform="translate(-170.573 -235.825)" fill="#fff"/>
    <path id="패스_1499" data-name="패스 1499" d="M154.079,262.822a.629.629,0,0,0,.625.462v.333h-2.765v-.333c.571-.091.64-.105.64-.409,0-.041-.119-.479-.128-.516l-1.068-3.048-.078-.028-.632,3.167a1.773,1.773,0,0,0-.019.277c0,.478.315.531.65.557v.333h-2.854v-.333c.346-.068.622-.105.791-.954l1.2-5.948a5.729,5.729,0,0,0,.108-.714c0-.438-.108-.465-.72-.584v-.331H152.9v.331c-.495.055-.771.186-.93.954l-.59,2.928.048.013c.613-.7,1.215-1.4,1.8-2.146.839-1.059.839-1.231.839-1.376,0-.293-.169-.318-.554-.373v-.331h2.084v.331c-.356.068-.483.08-.927.636l-2.134,2.624Z" transform="translate(-148.452 -235.634)" fill="#fff"/>
    <path id="패스_1500" data-name="패스 1500" d="M163.556,263.617h-2.922v-.333c.425-.079.633-.2.789-.954l1.215-5.948s.1-.57.1-.741c0-.425-.089-.438-.722-.558v-.331h2.944v.331c-.374.068-.641.12-.81.954l-1.125,5.563a8.436,8.436,0,0,0-.178,1.116c0,.45.208.542.711.568Z" transform="translate(-154.156 -235.634)" fill="#fff"/>
    <path id="패스_1501" data-name="패스 1501" d="M173.422,263.617h-5.471v-.333c.394-.091.622-.132.79-.954l1.214-5.948a6.048,6.048,0,0,0,.1-.741c0-.425-.108-.451-.72-.558v-.331h5.332l-.425,2.518-.266-.066c0-.982,0-2.028-1.867-2.028-.414,0-.493.214-.572.581l-.6,2.957c1.451.04,1.6-.332,2.023-1.4l.277.053-.73,3.617-.276-.067a4.536,4.536,0,0,0,.038-.531c0-.965-.306-1.244-1.422-1.244l-.552,2.769c-.048.278-.148.688-.148.808,0,.291.088.478.641.478a3.067,3.067,0,0,0,2.972-2.214l.247.066Z" transform="translate(-157.582 -235.634)" fill="#fff"/>
    <path id="패스_1502" data-name="패스 1502" d="M183.874,255.758c.05-.29.12-.581.445-.581.633,0,.927.465.927,1.26s-.256,1.894-.987,2.212a2.879,2.879,0,0,1-.978.159Zm-2.192-.674c.633.12.721.133.721.558,0,.171-.1.741-.1.741l-1.213,5.948c-.159.757-.366.875-.791.954v.333h2.924v-.333c-.524-.039-.713-.132-.713-.582a6.231,6.231,0,0,1,.139-.915l.543-2.557h.286l1.057,4.386h2v-.333c-.474-.068-.652-.091-.868-.954l-.819-3.257a2.4,2.4,0,0,0,1.9-2.4c0-1.923-1.739-1.923-2.332-1.923h-2.726Z" transform="translate(-163.365 -235.634)" fill="#fff"/>
  </g>
</svg>
