<svg xmlns="http://www.w3.org/2000/svg" width="89.74" height="24.242" viewBox="0 0 89.74 24.242">
  <g id="그룹_460" data-name="그룹 460" transform="translate(0 0)">
    <path id="패스_1492" data-name="패스 1492" d="M-527.8,338.28v-9.64h-5.079v24.238h5.079v-14.6Z" transform="translate(585.275 -328.637)" fill="#fff"/>
    <path id="패스_1493" data-name="패스 1493" d="M-484.468,331.009a5.575,5.575,0,0,0-1.646-1.918,2.778,2.778,0,0,0-1.72-.439,2.89,2.89,0,0,0-1.582.513A5.742,5.742,0,0,0-491,331l-13,21.875h5.365l4.078-6.766h13.4l4.054,6.766h5.374Zm-7.556,10.9,4.2-6.965,4.17,6.965Z" transform="translate(561.475 -328.638)" fill="#fff"/>
    <g id="그룹_446" data-name="그룹 446">
      <path id="패스_1494" data-name="패스 1494" d="M-771.1,335.182a6.061,6.061,0,0,0-2.069-4.723,7.359,7.359,0,0,0-5.035-1.84h-17a14.637,14.637,0,0,1-1.76,5.307,8.457,8.457,0,0,1-5.169,3.99,20.429,20.429,0,0,0-5.686-.971c-.143-.008-.262-.011-.357-.01a16.107,16.107,0,0,0-3.766.276v-8.589h-5.078v9.248a12.465,12.465,0,0,1,3.714-.368,20.616,20.616,0,0,0-2.032.617,28.759,28.759,0,0,0-3.208,1.4,21.737,21.737,0,0,1,11.923.625l.07.029a21.713,21.713,0,0,1,2.389,1.141,19.829,19.829,0,0,1,3.265,2.263l.106.1-.03-.031a17.625,17.625,0,0,1,5.53,8.47,5.029,5.029,0,0,1,.125.74H-778.2a7.342,7.342,0,0,0,5.035-1.841,6.06,6.06,0,0,0,2.069-4.722,13.463,13.463,0,0,0-.252-3.006,6.045,6.045,0,0,0-1.527-2.572,6.024,6.024,0,0,0,1.78-4.242Zm-36.024,1.83c3.024.39,10.338,2.586,11.666,13.308C-796.783,339.6-804.1,337.4-807.121,337.012Zm-.578-.058h0Zm.131.01c.075.007.156.014.239.024C-807.412,336.978-807.492,336.97-807.568,336.964Zm.29.029.155.019Zm11.942,14.513c.015.191.028.385.039.581C-795.308,351.891-795.321,351.7-795.336,351.506Zm-.119-1.186c.024.188.044.379.064.572Q-795.42,350.6-795.455,350.32Zm.065.585q.029.285.052.578C-795.353,351.288-795.37,351.1-795.39,350.905Zm19.654-14.28c0,1.337-.807,1.991-2.465,1.991h-5.775l-.029.007a2.142,2.142,0,0,0-2.223,2.116,2.142,2.142,0,0,0,2.252,2.118h5.775a2.977,2.977,0,0,1,1.731.516,1.669,1.669,0,0,1,.734,1.45v1.47c0,1.414-.827,2.133-2.46,2.133h-12.949a16.872,16.872,0,0,0-5.676-7.759c3.253-1.61,4.938-4.885,5.8-7.616H-778.2c1.633,0,2.46.724,2.46,2.154Z" transform="translate(820.699 -328.619)" fill="#fff"/>
      <path id="패스_1495" data-name="패스 1495" d="M-816.632,392.343l-.07-.029a18.234,18.234,0,0,0-5.319-1.126h0q-.334-.022-.663-.033l-.056,0c-.446-.014-.883-.015-1.309,0h-.048c-.641.018-1.257.06-1.838.12l-.039,0c-.389.041-.762.088-1.117.141h-.005a24.871,24.871,0,0,0-3.132.668c-.186.052-.345.1-.473.137l-.045.015a.111.111,0,0,0-.024.045.075.075,0,0,0,.006.053.017.017,0,0,1,0,0c.518.8,2.292,1.39,3.667,1.524v10.526h5.078V392.641a10.489,10.489,0,0,1,7.778.843l0,0,0,0A21.609,21.609,0,0,0-816.632,392.343Z" transform="translate(830.776 -380.146)" fill="#fff"/>
    </g>
  </g>
</svg>
