<svg id="그룹_462" data-name="그룹 462" xmlns="http://www.w3.org/2000/svg" width="69.882" height="99.385" viewBox="0 0 69.882 99.385">
  <g id="그룹_449" data-name="그룹 449">
    <path id="패스_1503" data-name="패스 1503" d="M348.846-457.721c-2,4.752-8.35,12.7-8.35,12.7-3.3,4.34-7.2,9.785-8.579,16.982-2.908,19.919,9.47,30.18,17.061,33.071-5.981-3.166-16.481-12.26-13.966-28.7,1.231-6.109,4.5-12.386,11.918-20.367,0,0,8.753-9.126,9.936-17.056,0,0,4.163-17.729-12.23-28.624,8.238,10.252,8.4,22.1,4.211,31.989" transform="translate(-326.834 489.71)" fill="#fff"/>
    <path id="패스_1504" data-name="패스 1504" d="M369.342-443.724c-2.59,6.2-9.379,12.417-9.379,12.417-10.716,10.336-12.092,16.467-12.092,16.467a26.138,26.138,0,0,0,2.615,21.8,22.988,22.988,0,0,0,14.072,10.184c-3.981-1.373-11.844-6.053-12.518-16.317-.455-6.159,3-13.956,12.973-21.806a55.228,55.228,0,0,0,8.935-9.054,30.036,30.036,0,0,0,5.642-13.5,32.161,32.161,0,0,0-1.841-15.76,34.221,34.221,0,0,0-8.89-13.383c7.593,14.651.484,28.961.484,28.961" transform="translate(-336.569 478.736)" fill="#fff"/>
    <path id="패스_1505" data-name="패스 1505" d="M421.77-361.812v-34.163H408.238v38.093c-.039,2.646-.271,5.6-.271,5.6-.47,4.511-1.4,6.188-1.4,6.188a21.141,21.141,0,0,1-7.975,9.715c-14.121,9.53-28.239,1.647-28.239,1.647,17.65,10.471,34.825.823,34.825.823,12.089-7.008,15.385-16.544,16.274-21.672a48.271,48.271,0,0,0,.319-6.232" transform="translate(-351.888 429.239)" fill="#fff"/>
    <path id="패스_1506" data-name="패스 1506" d="M334.122-374.3a30.625,30.625,0,0,1-11.367-15.645s-2.774-8.194-1.15-16.482a42.725,42.725,0,0,1,4.078-11.668,65.1,65.1,0,0,1,4.717-7.126,64.692,64.692,0,0,0,3.986-6.236s7.04-11.235-1.623-22.468c0,0,3.523,9.109-1.077,17.595,0,0-2.163,3.707-4.513,7.222,0,0-5.163,7.473-6.674,12.544a37.189,37.189,0,0,0-1.169,20.7s2.444,14.757,14.792,21.56" transform="translate(-318.405 466.646)" fill="#fff"/>
  </g>
  <g id="그룹_454" data-name="그룹 454" transform="translate(22.903 60.815)">
    <g id="그룹_450" data-name="그룹 450" transform="translate(6.061 25.914)">
      <path id="패스_1507" data-name="패스 1507" d="M400.727-240.511v-4.249h-.834v-.58h1.682v4.829Z" transform="translate(-399.893 245.417)" fill="#fff"/>
      <path id="패스_1508" data-name="패스 1508" d="M410.557-244a1.255,1.255,0,0,0-.168-.737.619.619,0,0,0-.535-.233.576.576,0,0,0-.506.23,1.373,1.373,0,0,0-.156.746,1.331,1.331,0,0,0,.155.749.606.606,0,0,0,.525.213.605.605,0,0,0,.526-.23,1.323,1.323,0,0,0,.159-.739m-.152,1.265a1.205,1.205,0,0,1-.363.185,1.333,1.333,0,0,1-.407.058,1.232,1.232,0,0,1-.972-.341,1.71,1.71,0,0,1-.3-1.133,1.707,1.707,0,0,1,.369-1.2,1.532,1.532,0,0,1,1.15-.387,1.46,1.46,0,0,1,1.129.41,1.788,1.788,0,0,1,.371,1.233,3.337,3.337,0,0,1-.308,1.356,11.125,11.125,0,0,1-1.213,1.907h-.987c.43-.539.755-.96.971-1.261s.4-.572.558-.827" transform="translate(-405.353 245.556)" fill="#fff"/>
      <path id="패스_1509" data-name="패스 1509" d="M418.611-241.251a2.137,2.137,0,0,0,.438.167,1.931,1.931,0,0,0,.458.055,1.236,1.236,0,0,0,.9-.3,1.176,1.176,0,0,0,.3-.883.766.766,0,0,0-.31-.664,1.58,1.58,0,0,0-.92-.222c-.165,0-.3,0-.422.015a3.429,3.429,0,0,0-.35.049l.446-2.31h2.362v.592h-1.649l-.263,1.179c.088-.013.168-.021.241-.027s.137-.006.191-.006a1.576,1.576,0,0,1,1.112.388,1.332,1.332,0,0,1,.421,1.03,1.617,1.617,0,0,1-.514,1.279,2.062,2.062,0,0,1-1.429.46,3.455,3.455,0,0,1-.64-.057,3.292,3.292,0,0,1-.606-.171Z" transform="translate(-411.809 245.417)" fill="#fff"/>
      <path id="패스_1510" data-name="패스 1510" d="M429.383-240.628l1.8-2.562a3.749,3.749,0,0,0,.358-.624,1.329,1.329,0,0,0,.117-.515.67.67,0,0,0-.149-.476.629.629,0,0,0-.472-.156.588.588,0,0,0-.5.2,1.237,1.237,0,0,0-.15.7v.168h-.846a.417.417,0,0,1-.009-.093v-.15a1.316,1.316,0,0,1,.39-1.04,1.7,1.7,0,0,1,1.166-.348,1.743,1.743,0,0,1,1.105.317,1.064,1.064,0,0,1,.4.877,1.661,1.661,0,0,1-.155.676,4.285,4.285,0,0,1-.528.832l-1.219,1.579h1.763v.613Z" transform="translate(-418.901 245.534)" fill="#fff"/>
    </g>
    <g id="그룹_451" data-name="그룹 451" transform="translate(0 14.988)">
      <path id="패스_1511" data-name="패스 1511" d="M435.333-276.294v5.813a1.886,1.886,0,0,0,.785,1.688,4.521,4.521,0,0,0,2.476.528,4.579,4.579,0,0,0,2.481-.528,1.889,1.889,0,0,0,.782-1.688v-5.813H440.2v5.9a.946.946,0,0,1-.391.843,2.186,2.186,0,0,1-1.215.268,2.181,2.181,0,0,1-1.218-.268.942.942,0,0,1-.4-.843v-5.9Z" transform="translate(-416.675 276.294)" fill="#fff"/>
      <path id="패스_1512" data-name="패스 1512" d="M384.61-268.246a3.008,3.008,0,0,0,1.95-.529,2.006,2.006,0,0,0,.634-1.632v-5.887h-1.67v5.917a1.1,1.1,0,0,1-.293.846,1.346,1.346,0,0,1-.925.272,2.547,2.547,0,0,1-.7-.109,3.7,3.7,0,0,1-.76-.33v1.1a4.025,4.025,0,0,0,.862.265,4.535,4.535,0,0,0,.907.087" transform="translate(-382.841 276.294)" fill="#fff"/>
      <path id="패스_1513" data-name="패스 1513" d="M405.363-275.332v-.962h-4.949v7.937h4.949v-1h-3.284v-2.683h3.005v-.944h-3.005v-2.353Z" transform="translate(-394.167 276.294)" fill="#fff"/>
      <path id="패스_1514" data-name="패스 1514" d="M421.529-268.775a2,2,0,0,0,.632-1.632v-5.887H420.5v5.917a1.1,1.1,0,0,1-.3.846,1.345,1.345,0,0,1-.926.272,2.615,2.615,0,0,1-.706-.109,3.609,3.609,0,0,1-.761-.33v1.1a4.274,4.274,0,0,0,.864.265,4.481,4.481,0,0,0,.91.087,2.986,2.986,0,0,0,1.946-.529" transform="translate(-405.38 276.294)" fill="#fff"/>
    </g>
    <g id="그룹_453" data-name="그룹 453" transform="translate(3.429 0)">
      <path id="패스_1515" data-name="패스 1515" d="M402.584-303.033a3.1,3.1,0,0,0,1.442-.481l8.395.584v-10.834l-.875-.053.388.613v9.816l-8.073-.518a2.687,2.687,0,0,1-1.406.464,2.692,2.692,0,0,1-1.406-.464l-8.069.518V-313.2l.385-.613-.876.053v10.834l8.4-.584a3.078,3.078,0,0,0,1.439.481A2.112,2.112,0,0,0,402.584-303.033Z" transform="translate(-392.488 315.468)" fill="#fff"/>
      <g id="그룹_452" data-name="그룹 452" transform="translate(0.932 1.035)">
        <path id="패스_1516" data-name="패스 1516" d="M395.958-315.551c-.186.294-.829,1.307-.849,1.335v8.8c.188-.311.832-1.387.849-1.413Z" transform="translate(-395.109 315.551)" fill="#fff"/>
        <path id="패스_1517" data-name="패스 1517" d="M403.458-289.742l.023.022a1.875,1.875,0,0,0,.956.446,1.858,1.858,0,0,0-.94-1.391,5.839,5.839,0,0,0-2.657-.459c-.555,0-1.148.033-1.824.1-.654.066-1.343.163-2.046.289-.03.048-.776,1.294-.89,1.482C396.33-289.27,403.458-289.742,403.458-289.742Z" transform="translate(-395.735 299.806)" fill="#fff"/>
        <path id="패스_1518" data-name="패스 1518" d="M444.406-314.216c-.017-.028-.661-1.041-.848-1.335v8.723c.017.026.66,1.1.848,1.413Z" transform="translate(-426.337 315.551)" fill="#fff"/>
        <path id="패스_1519" data-name="패스 1519" d="M422.4-290.665a1.862,1.862,0,0,0-.942,1.391,1.869,1.869,0,0,0,.957-.446l.023-.022s7.13.472,7.378.488c-.114-.188-.858-1.434-.888-1.482-.7-.126-1.393-.223-2.048-.289-.673-.065-1.269-.1-1.824-.1A5.841,5.841,0,0,0,422.4-290.665Z" transform="translate(-412.092 299.806)" fill="#fff"/>
      </g>
      <path id="패스_1520" data-name="패스 1520" d="M426.743-318.355a17.068,17.068,0,0,0-1.882-.107l-.841.035-.642.1a3.4,3.4,0,0,0-1.168.454l-.091.071-.04.027a2.9,2.9,0,0,0-.818.865v8.836a2.039,2.039,0,0,1,.446-.435,5.172,5.172,0,0,1,2.122-.666l.038,0,.041,0a12.51,12.51,0,0,1,1.569-.054l1.163.082c.589.057,1.273.145,2.034.259v-9.145C428.013-318.183,427.362-318.288,426.743-318.355Zm.847,1.958a4.218,4.218,0,0,1-2.461,2.38s.32.077,1.07.965a3.094,3.094,0,0,0,.977.811s-1.057,2.086-1.162,2.331a4.621,4.621,0,0,1-1.3-2.06.372.372,0,0,0-.367-.193s-.84.094-1.183.122a.308.308,0,0,1-.341,0l-.124-.131s-.029.008-.082-.039a.279.279,0,0,1-.114-.2.218.218,0,0,1,.069-.178,12.384,12.384,0,0,0,1.661-1.314s-.014.049.063-.148a2.661,2.661,0,0,1-.671-.279s-.3-.2-.288-.464l.07-.005s0,.316.608.5a1.338,1.338,0,0,1-.2-.446.3.3,0,0,1,.085-.018s.171.515.464.526c0,0,.574-.352.617-.751,0,0-.238-.146-.335-.746l.078-.045s.1.568.377.552c0,0,.257-.006.414-.479a2.344,2.344,0,0,0,.125-.789,2.813,2.813,0,0,0-.059-.385l.059-.1a1.769,1.769,0,0,1,.077.291,1.223,1.223,0,0,1,.225-.582l.052.03a1.037,1.037,0,0,0-.137.638,2.9,2.9,0,0,1-.188,1.022,4.265,4.265,0,0,1-.952,1.422,8.476,8.476,0,0,0,1.164-.569s.347-.214.39-.957h.09a1.569,1.569,0,0,1-.011.6,2.544,2.544,0,0,0,1.063-1.3.8.8,0,0,0-.023-.528l.039-.049a.931.931,0,0,1,.127.365.667.667,0,0,1,.4-.362l.022.054A.982.982,0,0,0,427.59-316.4Z" transform="translate(-411.034 318.462)" fill="#fff"/>
      <path id="패스_1521" data-name="패스 1521" d="M405.53-317.779l-.036-.027-.092-.07a3.379,3.379,0,0,0-1.165-.454l-.646-.1-.836-.035a16.985,16.985,0,0,0-1.882.107c-.623.068-1.274.172-1.934.311v9.145c.762-.114,1.447-.2,2.032-.259l1.167-.082a12.336,12.336,0,0,1,1.56.054l.048,0,.043,0a5.14,5.14,0,0,1,2.117.669,1.96,1.96,0,0,1,.445.432v-8.836A2.9,2.9,0,0,0,405.53-317.779Zm-1.171,7.376h-3.269c.5-1.394-.506-3.919-.506-3.919.685-.772,1.555-1.909,1.938-2.421v3.062a.52.52,0,0,0-.324.478.517.517,0,0,0,.515.518.516.516,0,0,0,.515-.518.515.515,0,0,0-.324-.478v-3.087c.372.495,1.261,1.661,1.958,2.446C404.864-314.322,403.86-311.8,404.359-310.4Z" transform="translate(-396.645 318.462)" fill="#fff"/>
    </g>
  </g>
</svg>
