<?xml version="1.0" encoding="utf-8"?>
<!-- Generator: Adobe Illustrator 25.0.1, SVG Export Plug-In . SVG Version: 6.00 Build 0)  -->
<svg version="1.1" id="Layer_1" xmlns="http://www.w3.org/2000/svg" xmlns:xlink="http://www.w3.org/1999/xlink" x="0px" y="0px"
	 viewBox="0 0 424 120" style="enable-background:new 0 0 424 120;" xml:space="preserve">
<style type="text/css">
	.st0{fill:#F5F3F4;}
	.st1{fill:#FFFFFF;}
</style>
<path class="st0" d="M104.31,86.25H62.5c-1.86,0-2.61-1.31-1.65-2.91l12.43-20.83l16.33-27.35l17.1-28.65
	c0.96-1.6,0.21-2.91-1.65-2.91H5.18C3.32,3.6,1.8,5.13,1.8,6.99V29.1c0,1.86,1.53,3.38,3.38,3.38h41.37c1.86,0,2.6,1.31,1.64,2.91
	l-1.8,3l-14.9,24.89L2.35,111.94c-0.96,1.6-0.22,2.9,1.65,2.9h100.32c1.86,0,3.39-1.52,3.39-3.39V89.64
	C107.7,87.78,106.17,86.25,104.31,86.25z"/>
<path class="st0" d="M203.09,85.08h-46.54c-1.87,0-3.39-1.53-3.39-3.39v-5.81c0-1.86,1.52-3.39,3.39-3.39h25.12h20.77
	c1.86,0,3.39-1.52,3.39-3.39V48.18c0-1.86-1.53-3.39-3.39-3.39h-45.89c-1.87,0-3.39-1.53-3.39-3.39v-3.76v-0.7
	c0-1.86,1.52-3.38,3.39-3.38h46.24c1.86,0,3.39-1.53,3.39-3.39V8.04c0-1.86-1.53-3.39-3.39-3.39h-78.55c-1.87,0-3.39,1.52-3.39,3.39
	v27.96v29.47v47.02c0,1.86,1.52,3.39,3.39,3.39h78.85c1.86,0,3.39-1.53,3.39-3.39V88.47C206.48,86.6,204.95,85.08,203.09,85.08z"/>
<path class="st0" d="M409.57,55.2c-2.17-1.52-5.69-3.28-10.47-5.26c-3.59-1.48-7.86-3.08-12.91-4.81
	c-8.42-2.96-12.64-6.17-12.64-9.63c0-4.54,3.53-6.81,10.58-6.81c7.36,0,25.11,9.18,25.11,9.18c1.74,0.9,3.43,0.13,3.75-1.71
	l4.3-24.36c-12-6.81-24.11-10.22-36.32-10.22c-12.84,0-23.64,3.01-32.38,9.04c-9.69,6.71-14.53,15.9-14.53,27.55
	c0,8.48,3.23,15.48,9.7,21c0.91,0.78,1.89,1.53,2.94,2.25c4.1,2.87,12,6.37,23.69,10.52c8.42,3.06,12.64,6.03,12.64,8.89
	c0,2.87-1.48,4.99-4.43,6.37c-2.32,1.19-5.1,1.78-8.37,1.78c-10.11,0-29.75-11-29.75-11c-1.71-0.96-3.33-0.23-3.61,1.61l-3.5,23.1
	l-0.41,2.73c12.01,7.51,26.32,11.26,42.96,11.26c12.84,0,23.53-3.06,32.06-9.19c2.6-1.84,4.84-3.88,6.72-6.1
	c4.98-5.85,7.49-13,7.49-21.45C422.2,69.37,417.99,61.12,409.57,55.2z"/>
<g>
	<path class="st1" d="M238.21,63.55l26.31-58.89h-40.6c-1.75,0-3.18,1.53-3.18,3.41v63.45c0,3.07,0.19,6,0.56,8.78
		c1.55,11.69,6.36,20.83,14.44,27.41c3.65,2.91,7.85,5.21,12.57,6.94l25.49-51.09H238.21z"/>
	<path class="st1" d="M323.11,72.06c0-2.35-0.02-64-0.02-64c0-1.87-1.43-3.41-3.18-3.41h-17.85L273.8,42.85l29.2-0.93l-54.48,72.8
		c6.84,2.47,14.8,3.71,23.88,3.71c15.46,0,27.45-4,36.38-11.46c2.05-1.71,3.79-3.61,5.3-5.6C323.67,88.7,323.11,72.06,323.11,72.06z
		"/>
</g>
</svg>
